<svg xmlns="http://www.w3.org/2000/svg" viewBox="0 0 100 100">
  <!-- 太极图 -->
  <circle cx="50" cy="50" r="48" fill="none" stroke="#8b4513" stroke-width="2"/>
  
  <!-- 阴阳鱼 -->
  <path d="M50 2 A48 48 0 0 1 50 98 A24 24 0 0 1 50 50 A24 24 0 0 0 50 2" fill="#2c3e50"/>
  <path d="M50 2 A48 48 0 0 0 50 98 A24 24 0 0 0 50 50 A24 24 0 0 1 50 2" fill="#f5f3f0"/>
  
  <!-- 鱼眼 -->
  <circle cx="50" cy="26" r="6" fill="#2c3e50"/>
  <circle cx="50" cy="74" r="6" fill="#f5f3f0"/>
  
  <!-- 八卦符号（简化） -->
  <g stroke="#8b4513" stroke-width="1.5" fill="none" opacity="0.3">
    <!-- 乾 -->
    <line x1="80" y1="15" x2="90" y2="15"/>
    <line x1="80" y1="18" x2="90" y2="18"/>
    <line x1="80" y1="21" x2="90" y2="21"/>
    
    <!-- 坤 -->
    <line x1="10" y1="79" x2="13" y2="79"/>
    <line x1="17" y1="79" x2="20" y2="79"/>
    <line x1="10" y1="82" x2="13" y2="82"/>
    <line x1="17" y1="82" x2="20" y2="82"/>
    <line x1="10" y1="85" x2="13" y2="85"/>
    <line x1="17" y1="85" x2="20" y2="85"/>
  </g>
</svg>
